<?xml version="1.0" standalone="no"?>
<!DOCTYPE svg PUBLIC "-//W3C//DTD SVG 20010904//EN"
 "http://www.w3.org/TR/2001/REC-SVG-20010904/DTD/svg10.dtd">
<svg version="1.0" xmlns="http://www.w3.org/2000/svg"
 width="300.000000pt" height="300.000000pt" viewBox="0 0 300.000000 300.000000"
 preserveAspectRatio="xMidYMid meet">
<metadata>
Created by potrace 1.10, written by Peter Selinger 2001-2011
</metadata>
<g transform="translate(0.000000,300.000000) scale(0.100000,-0.100000)"
fill="#000000" stroke="none">
<path d="M1445 2485 c-68 -68 12 -179 96 -134 12 6 26 25 34 42 35 84 -67 156
-130 92z m108 -13 c9 -8 17 -29 17 -47 0 -59 -66 -92 -113 -55 -45 36 -33 103
23 123 20 7 51 -2 73 -21z"/>
<path d="M1467 2462 c-22 -24 -21 -55 1 -75 24 -22 45 -21 65 1 21 23 22 56 1
76 -21 21 -47 20 -67 -2z m54 -2 c25 -14 25 -56 -1 -70 -45 -24 -86 44 -42 69
21 13 20 13 43 1z"/>
<path d="M1480 2228 c-33 -130 -65 -228 -90 -284 -76 -169 -172 -243 -279
-214 -65 17 -157 87 -234 177 -45 53 -73 79 -75 70 -2 -9 13 -67 33 -131 172
-551 79 -656 -297 -334 -32 28 -59 44 -63 38 -3 -5 41 -97 98 -202 57 -106
125 -232 151 -280 26 -47 53 -91 60 -97 9 -8 35 -6 92 5 340 65 790 70 1149
12 72 -11 141 -21 155 -22 22 -1 35 18 123 179 154 281 218 410 208 413 -6 2
-52 -34 -103 -79 -240 -212 -336 -221 -331 -31 2 86 27 201 79 371 25 79 42
146 39 149 -3 4 -29 -20 -58 -53 -213 -246 -348 -264 -478 -61 -55 84 -103
214 -143 389 -9 39 -24 33 -36 -15z m35 -54 c19 -129 103 -318 176 -398 76
-83 163 -103 254 -58 56 27 133 93 175 148 23 31 43 54 45 52 2 -2 -7 -34 -20
-71 -37 -100 -75 -255 -85 -343 -15 -139 13 -214 80 -214 52 0 166 68 255 152
47 44 85 77 85 73 0 -3 -17 -37 -39 -73 -21 -37 -71 -128 -111 -202 -109 -203
-132 -244 -139 -252 -3 -3 -42 0 -86 8 -364 65 -756 70 -1132 14 -70 -10 -139
-21 -153 -24 -24 -6 -31 5 -142 211 -65 120 -132 243 -149 273 l-32 55 39 -36
c157 -145 297 -209 361 -164 66 46 52 239 -37 504 l-38 116 31 -40 c84 -109
193 -189 273 -201 89 -13 177 41 242 149 38 63 95 216 113 305 7 34 16 62 20
62 4 0 10 -21 14 -46z"/>
<path d="M1490 2013 c0 -10 -22 -64 -50 -119 -71 -147 -151 -221 -253 -237
-51 -8 -140 17 -195 54 -24 16 -46 28 -48 26 -3 -2 2 -30 11 -62 23 -91 38
-218 31 -267 -8 -56 -37 -103 -78 -129 -42 -26 -111 -20 -182 15 -28 14 -52
24 -53 22 -2 -1 31 -66 73 -143 l75 -140 68 13 c333 63 878 63 1207 1 l70 -14
71 131 c38 72 68 133 67 135 -2 2 -27 -8 -55 -24 -64 -35 -136 -38 -177 -9
-44 33 -62 79 -62 165 0 77 22 224 40 266 12 28 -3 39 -21 16 -27 -32 -116
-63 -182 -63 -118 0 -207 78 -293 254 -24 49 -44 95 -44 102 0 7 -4 16 -10 19
-5 3 -10 -2 -10 -12z m57 -141 c78 -164 176 -242 302 -242 49 0 80 7 119 25
30 14 52 19 52 13 0 -6 -7 -47 -16 -91 -11 -52 -15 -110 -12 -167 4 -78 7 -92
32 -125 50 -65 128 -80 207 -39 16 8 29 12 29 9 0 -3 -23 -48 -52 -100 -31
-58 -58 -95 -67 -95 -9 0 -50 6 -91 14 -289 54 -803 54 -1115 0 -44 -8 -85
-14 -92 -14 -12 0 -127 199 -119 207 3 3 25 -3 50 -12 111 -42 214 23 231 145
8 58 0 150 -20 230 -8 30 -12 56 -10 58 2 2 29 -8 60 -23 42 -21 71 -28 118
-28 125 -1 222 74 299 233 23 49 45 90 48 90 3 0 24 -40 47 -88z"/>
<path d="M693 2175 c-55 -23 -69 -81 -32 -129 15 -19 30 -26 54 -26 47 0 64 8
81 42 36 70 -31 143 -103 113z m75 -21 c16 -11 22 -25 22 -54 0 -44 -26 -70
-71 -70 -30 0 -69 40 -69 70 0 10 9 29 21 44 24 30 63 34 97 10z"/>
<path d="M678 2125 c-17 -37 3 -75 40 -75 35 0 52 16 52 50 0 34 -17 50 -52
50 -21 0 -32 -7 -40 -25z m70 6 c18 -11 11 -51 -10 -65 -35 -22 -74 27 -48 59
14 17 38 19 58 6z"/>
<path d="M2242 2174 c-37 -15 -55 -61 -40 -104 12 -36 35 -50 82 -50 65 0 99
79 56 132 -24 31 -59 39 -98 22z m87 -30 c12 -15 21 -34 21 -44 0 -10 -9 -29
-21 -44 -24 -30 -63 -34 -97 -10 -31 21 -31 87 0 108 34 24 73 20 97 -10z"/>
<path d="M2242 2138 c-7 -7 -12 -24 -12 -38 0 -34 17 -50 52 -50 37 0 57 38
40 75 -13 27 -58 35 -80 13z m66 -10 c30 -30 0 -75 -43 -64 -19 5 -25 13 -25
35 0 38 41 56 68 29z"/>
<path d="M355 1725 c-52 -51 -15 -135 60 -135 46 0 85 36 85 80 0 44 -39 80
-85 80 -25 0 -44 -8 -60 -25z m110 -5 c39 -43 10 -120 -45 -120 -41 0 -73 31
-73 70 0 61 78 94 118 50z"/>
<path d="M375 1700 c-37 -41 7 -93 64 -75 49 15 28 95 -24 95 -12 0 -30 -9
-40 -20z m61 2 c32 -21 18 -72 -21 -72 -30 0 -46 27 -34 58 8 22 34 29 55 14z"/>
<path d="M2529 1731 c-18 -14 -24 -29 -24 -61 0 -51 30 -80 80 -80 44 0 74 27
81 72 5 30 2 41 -19 62 -32 32 -84 35 -118 7z m106 -11 c42 -46 10 -120 -51
-120 -35 0 -74 37 -74 70 0 10 9 29 21 44 26 33 77 36 104 6z"/>
<path d="M2545 1700 c-37 -41 7 -93 64 -75 49 15 28 95 -24 95 -12 0 -30 -9
-40 -20z m61 2 c32 -21 18 -72 -21 -72 -26 0 -40 28 -30 60 6 20 31 26 51 12z"/>
<path d="M1405 983 c-186 -7 -551 -56 -582 -78 -17 -13 -17 -15 3 -42 25 -32
18 -32 194 -5 74 12 215 27 312 34 154 10 203 10 380 -5 112 -10 239 -24 283
-32 165 -31 151 -31 170 5 14 27 15 35 3 45 -37 36 -528 86 -763 78z m385 -34
c140 -13 370 -50 370 -58 0 -4 -6 -15 -12 -24 -12 -16 -19 -16 -88 -3 -355 67
-814 67 -1134 0 -64 -13 -70 -13 -82 3 -7 10 -10 21 -6 24 4 4 66 16 137 28
289 46 551 56 815 30z"/>
</g>
</svg>
